<svg xmlns="http://www.w3.org/2000/svg" data-name="Layer 1" viewBox="0 0 1024 1280" x="0px" y="0px"><title>icon-01</title><path fill="#00baff" d="M926.647887 126.197183h-288.450704c0-72.112676-57.690141-126.197183-126.197183-126.197183s-126.197183 57.690141-126.197183 126.197183h-288.450704c-18.028169 0-32.450704 14.422535-32.450705 32.450704v829.295775c0 18.028169 14.422535 32.450704 32.450705 32.450704h829.295774c18.028169 0 32.450704-14.422535 32.450705-32.450704v-829.295775c0-18.028169-14.422535-32.450704-32.450705-32.450704zM512 64.901408c36.056338 0 64.901408 28.84507 64.901408 64.901409s-28.84507 64.901408-64.901408 64.901408-64.901408-28.84507-64.901408-64.901408 28.84507-64.901408 64.901408-64.901409z m382.197183 894.197184H126.197183V191.098592H252.394366V288.450704c0 18.028169 14.422535 32.450704 32.450704 32.450704h447.098592c18.028169 0 32.450704-14.422535 32.450704-32.450704V191.098592h126.197183v768zM692.28169 530.028169c-43.267606 0-79.323944 36.056338-79.323944 79.323944 0 43.267606 36.056338 79.323944 79.323944 79.323943 43.267606 0 79.323944-36.056338 79.323944-79.323943 0-43.267606-36.056338-79.323944-79.323944-79.323944z m0-61.295775c79.323944 0 140.619718 64.901408 140.619718 140.619719s-64.901408 140.619718-140.619718 140.619718-140.619718-64.901408-140.619718-140.619718S612.957746 468.732394 692.28169 468.732394zM183.887324 609.352113C183.887324 530.028169 248.788732 468.732394 324.507042 468.732394s140.619718 64.901408 140.619719 140.619719-64.901408 140.619718-140.619719 140.619718-140.619718-61.295775-140.619718-140.619718z"/></svg>