<svg xmlns="http://www.w3.org/2000/svg" viewBox="0 0 48 85" x="0px" y="0px"><path fill="#00baff" fill-rule="evenodd" d="M193,317 L188,317 C186.895431,317 186,316.104569 186,315 L186,305 C186,303.895431 186.895431,303 188,303 L193,303 L193,298 C193,296.895431 193.895431,296 195,296 C196.104569,296 197,296.895431 197,298 L197,303 L200,303 C200.607567,303 201.182193,303.276179 201.561738,303.75061 L205.561738,308.75061 C206.146087,309.481047 206.146087,310.518953 205.561738,311.24939 L201.561738,316.24939 C201.182193,316.723821 200.607567,317 200,317 L197,317 L197,362 C197,363.104569 196.104569,364 195,364 C193.895431,364 193,363.104569 193,362 L193,317 Z M190,313 L199.03875,313 L201.43875,310 L199.03875,307 L190,307 L190,313 Z M220,332 C218.895431,332 218,331.104569 218,330 C218,328.895431 218.895431,328 220,328 L232,328 C233.104569,328 234,328.895431 234,330 C234,331.104569 233.104569,332 232,332 L220,332 Z M226,322 C224.895431,322 224,321.104569 224,320 C224,318.895431 224.895431,318 226,318 L232,318 C233.104569,318 234,318.895431 234,320 C234,321.104569 233.104569,322 232,322 L226,322 Z M220,312 C218.895431,312 218,311.104569 218,310 C218,308.895431 218.895431,308 220,308 L232,308 C233.104569,308 234,308.895431 234,310 C234,311.104569 233.104569,312 232,312 L220,312 Z M226,302 C224.895431,302 224,301.104569 224,300 C224,298.895431 224.895431,298 226,298 L232,298 C233.104569,298 234,298.895431 234,300 C234,301.104569 233.104569,302 232,302 L226,302 Z M226,342 C224.895431,342 224,341.104569 224,340 C224,338.895431 224.895431,338 226,338 L232,338 C233.104569,338 234,338.895431 234,340 C234,341.104569 233.104569,342 232,342 L226,342 Z M220,352 C218.895431,352 218,351.104569 218,350 C218,348.895431 218.895431,348 220,348 L232,348 C233.104569,348 234,348.895431 234,350 C234,351.104569 233.104569,352 232,352 L220,352 Z M226,362 C224.895431,362 224,361.104569 224,360 C224,358.895431 224.895431,358 226,358 L232,358 C233.104569,358 234,358.895431 234,360 C234,361.104569 233.104569,362 232,362 L226,362 Z" transform="translate(-186 -296)"/></svg>