<svg xmlns="http://www.w3.org/2000/svg" data-name="Слой 1" viewBox="0 0 128 160" x="0px" y="0px"><title>ok, check, Server, Hosting, Network, Storage, Database, Proxy</title><path fill="#00baff" d="M22,126v-6H62a2,2,0,0,0,0-4H4V76H59a2,2,0,0,0,0-4H4V40H108V57a2,2,0,0,0,4,0V2a2,2,0,0,0-2-2H2A2,2,0,0,0,0,2V118a2,2,0,0,0,2,2H18v6a2,2,0,0,0,4,0ZM108,4V36H4V4Z"/><circle fill="#00baff" cx="20.01" cy="56" r="2.25"/><circle fill="#00baff" cx="20.01" cy="20" r="2.25"/><circle fill="#00baff" cx="20.01" cy="96" r="2.25"/><circle fill="#00baff" cx="36" cy="56" r="2.25"/><circle fill="#00baff" cx="36" cy="20" r="2.25"/><circle fill="#00baff" cx="36" cy="96" r="2.25"/><path fill="#00baff" d="M94,60a34,34,0,1,0,34,34A34,34,0,0,0,94,60Zm0,64a30,30,0,1,1,30-30A30,30,0,0,1,94,124Z"/><path fill="#00baff" d="M110.59,82.22,90.27,102.54,77.41,89.68a2,2,0,0,0-2.83,2.83l14.27,14.27a2,2,0,0,0,2.83,0L113.41,85a2,2,0,0,0-2.83-2.83Z"/><text x="0" y="143" fill="#00baff" font-size="5px" font-weight="bold" font-family="'Helvetica Neue', Helvetica, Arial-Unicode, Arial, Sans-serif">Created by LAFS</text></svg>