<svg xmlns="http://www.w3.org/2000/svg" viewBox="0 0 100 125" fill="none" x="0px" y="0px"><path fill="#00baff" fill-rule="evenodd" clip-rule="evenodd" d="M52.1146 29.8634H44V24C44 23.4477 43.5523 23 43 23C42.4477 23 42 23.4477 42 24V29.8634H28.4443C26.7875 29.8634 25.4443 31.2065 25.4443 32.8634V46.8125H19C18.4477 46.8125 18 47.2602 18 47.8125C18 48.3648 18.4477 48.8125 19 48.8125H25.4443V59.8125H19C18.4477 59.8125 18 60.2602 18 60.8125C18 61.3648 18.4477 61.8125 19 61.8125H25.4443V74.8681C25.4443 76.5249 26.7875 77.8681 28.4443 77.8681H42V83.8125C42 84.3648 42.4477 84.8125 43 84.8125C43.5523 84.8125 44 84.3648 44 83.8125V77.8681H55.5V83.8125C55.5 84.3648 55.9477 84.8125 56.5 84.8125C57.0523 84.8125 57.5 84.3648 57.5 83.8125V77.8681H70.449C72.1059 77.8681 73.449 76.5249 73.449 74.8681V61.8125H79.5C80.0523 61.8125 80.5 61.3648 80.5 60.8125C80.5 60.2602 80.0523 59.8125 79.5 59.8125H73.449V48.8125H80C80.5523 48.8125 81 48.3648 81 47.8125C81 47.2602 80.5523 46.8125 80 46.8125H73.449V41.5468C72.8063 41.8533 72.1383 42.1154 71.449 42.3292V74.8681C71.449 75.4204 71.0013 75.8681 70.449 75.8681H28.4443C27.8921 75.8681 27.4443 75.4204 27.4443 74.8681V32.8634C27.4443 32.3111 27.8921 31.8634 28.4443 31.8634H52.5022C52.3294 31.213 52.1991 30.5453 52.1146 29.8634ZM56.648 46.6648H42.2461V61.0667H56.648V46.6648ZM42.2461 44.6648C41.1415 44.6648 40.2461 45.5602 40.2461 46.6648V61.0667C40.2461 62.1712 41.1415 63.0667 42.2461 63.0667H56.648C57.7525 63.0667 58.648 62.1712 58.648 61.0666V46.6648C58.648 45.5602 57.7525 44.6648 56.648 44.6648H42.2461Z"/><path fill="#00baff" fill-rule="evenodd" clip-rule="evenodd" d="M67.5303 21.037C68.0826 21.037 68.5303 21.4847 68.5303 22.037V27.0287L71.9917 27C72.544 26.9955 72.9954 27.4395 73 27.9917C73.0045 28.544 72.5605 28.9954 72.0083 29L67.5385 29.0369C67.2719 29.0391 67.0154 28.9347 66.8261 28.747C66.6368 28.5592 66.5303 28.3036 66.5303 28.037V22.037C66.5303 21.4847 66.978 21.037 67.5303 21.037Z"/><path fill="#00baff" fill-rule="evenodd" clip-rule="evenodd" d="M67 38C72.5228 38 77 33.5228 77 28C77 22.4772 72.5228 18 67 18C61.4772 18 57 22.4772 57 28C57 33.5228 61.4772 38 67 38ZM67 40C73.6274 40 79 34.6274 79 28C79 21.3726 73.6274 16 67 16C60.3726 16 55 21.3726 55 28C55 34.6274 60.3726 40 67 40Z"/></svg>