<svg xmlns="http://www.w3.org/2000/svg" xmlns:xlink="http://www.w3.org/1999/xlink" version="1.1" x="0px" y="0px" viewBox="0 0 95 118.75" enable-background="new 0 0 95 95" xml:space="preserve"><g><path fill="#00baff" d="M47.5,24.997c-6.607,0-11.982,5.375-11.982,11.982S40.893,48.962,47.5,48.962c6.606,0,11.982-5.375,11.982-11.982   S54.107,24.997,47.5,24.997z M47.5,48.048c-6.104,0-11.069-4.965-11.069-11.068S41.396,25.911,47.5,25.911   c6.103,0,11.068,4.965,11.068,11.068S53.604,48.048,47.5,48.048z"/><path fill="#00baff" d="M47.5,5.586c-17.311,0-31.394,14.083-31.394,31.394c0,0.12,0.004,0.239,0.007,0.358l0.007,0.227   c0.051,1.215,0.253,3.797,1.032,7.46c2.238,10.522,9.445,20.646,24.878,34.941c1.65,1.529,3.389,3.101,5.167,4.671l0.303,0.267   l0.302-0.267c1.779-1.57,3.517-3.142,5.167-4.671C68.402,65.671,75.61,55.547,77.848,45.024c0.777-3.656,0.979-6.243,1.032-7.471   l0.006-0.216c0.004-0.119,0.007-0.238,0.007-0.358C78.893,19.669,64.81,5.586,47.5,5.586z M77.973,37.308l-0.006,0.219   c-0.05,1.188-0.249,3.717-1.012,7.309c-2.195,10.321-9.323,20.306-24.605,34.461c-1.551,1.437-3.181,2.912-4.848,4.389   c-1.668-1.477-3.298-2.952-4.849-4.389c-15.282-14.155-22.41-24.14-24.604-34.461c-0.766-3.598-0.964-6.123-1.013-7.298   l-0.006-0.229c-0.004-0.109-0.007-0.218-0.007-0.328C17.021,20.173,30.693,6.5,47.5,6.5c16.806,0,30.479,13.673,30.479,30.479   C77.98,37.09,77.976,37.198,77.973,37.308z"/><path fill="#00baff" d="M64.207,79.174h-8.985l-0.131,0.122c-0.575,0.532-1.505,1.414-2.548,2.404c-1.71,1.622-3.803,3.608-5.042,4.723   c-1.239-1.114-3.333-3.101-5.042-4.723c-1.043-0.99-1.974-1.872-2.548-2.404l-0.132-0.122h-8.985c-1.259,0-2.284,1.025-2.278,2.212   l-0.919,5.744c0,1.259,1.024,2.284,2.284,2.284H65.12c1.26,0,2.284-1.025,2.279-2.356l-0.908-5.6   C66.491,80.199,65.466,79.174,64.207,79.174z M65.12,88.5H29.88c-0.756,0-1.371-0.614-1.376-1.297l0.919-5.745   c0-0.756,0.615-1.37,1.371-1.37h8.627c0.578,0.537,1.444,1.36,2.409,2.275c1.863,1.768,4.182,3.967,5.368,5.015l0.303,0.267   l0.302-0.267c1.187-1.048,3.505-3.247,5.368-5.015c0.964-0.915,1.832-1.738,2.409-2.275h8.627c0.756,0,1.37,0.614,1.376,1.443   l0.908,5.599C66.491,87.886,65.875,88.5,65.12,88.5z"/></g></svg>