<svg xmlns="http://www.w3.org/2000/svg" xmlns:xlink="http://www.w3.org/1999/xlink" version="1.1" x="0px" y="0px" viewBox="0 0 48 60" style="enable-background:new 0 0 48 48;" xml:space="preserve"><g><path fill="#00baff" d="M42,23h-3.1c-0.46-2.28-2.48-4-4.9-4s-4.43,1.72-4.9,4H6c-0.55,0-1,0.45-1,1s0.45,1,1,1h23.1c0.46,2.28,2.48,4,4.9,4   s4.43-1.72,4.9-4H42c0.55,0,1-0.45,1-1S42.55,23,42,23z M34,27c-1.65,0-3-1.35-3-3s1.35-3,3-3s3,1.35,3,3S35.65,27,34,27z"/><path fill="#00baff" d="M42,37H24.9c-0.46-2.28-2.48-4-4.9-4s-4.43,1.72-4.9,4H6c-0.55,0-1,0.45-1,1s0.45,1,1,1h9.1c0.46,2.28,2.48,4,4.9,4   s4.43-1.72,4.9-4H42c0.55,0,1-0.45,1-1S42.55,37,42,37z M20,41c-1.65,0-3-1.35-3-3s1.35-3,3-3s3,1.35,3,3S21.65,41,20,41z"/><path fill="#00baff" d="M6,11h13.1c0.46,2.28,2.48,4,4.9,4s4.43-1.72,4.9-4H42c0.55,0,1-0.45,1-1s-0.45-1-1-1H28.9c-0.46-2.28-2.48-4-4.9-4   s-4.43,1.72-4.9,4H6c-0.55,0-1,0.45-1,1S5.45,11,6,11z M24,7c1.65,0,3,1.35,3,3s-1.35,3-3,3s-3-1.35-3-3S22.35,7,24,7z"/></g></svg>