<svg xmlns="http://www.w3.org/2000/svg" xmlns:xlink="http://www.w3.org/1999/xlink" version="1.1" x="0px" y="0px" viewBox="0 0 67 83.75" enable-background="new 0 0 67 67" xml:space="preserve"><g><g><polygon fill="#00baff" points="48.63,62.745 48.63,64.745 20.38,64.745 20.38,62.745 27.43,62.745 29.98,55.925 38.99,55.925 41.54,62.745   "/></g><g><path fill="#00baff" d="M62.01,2.255H5c-2.21,0-4,1.79-4,3.99v43.69c0,2.2,1.79,3.99,4,3.99h57.01c2.2,0,3.99-1.79,3.99-3.99V6.245    C66,4.045,64.21,2.255,62.01,2.255z M61,48.925H6V7.255h55V48.925z"/></g><g><path fill="#00baff" d="M31.34,35.225h23.5v-9.43h-23.5V35.225z M47.72708,29.5126h2.8174v2h-2.8174V29.5126z M41.68608,29.5126h2.8164v2h-2.8164    V29.5126z M35.64508,29.5126h2.8164v2h-2.8164V29.5126z"/><path fill="#00baff" d="M31.34,14.375v9.42h23.5v-9.42H31.34z M38.46148,20.0843h-2.8164v-2h2.8164V20.0843z M44.50248,20.0843h-2.8164v-2h2.8164    V20.0843z M50.54448,20.0843h-2.8174v-2h2.8174V20.0843z"/></g><path fill="#00baff" d="M28.57,24.975h-1.13972v-4.6827c0-2.853-2.32128-5.1738-5.1739-5.1738h-1.7812c-2.8525,0-5.1738,2.3208-5.1738,5.1738   v4.6827H14.16c-0.55,0-1,0.45-1,1v11.47c0,0.55,0.45,1,1,1h14.41c0.55,0,1-0.45,1-1v-11.47C29.57,25.425,29.12,24.975,28.57,24.975   z M22.37,31.565v2h-2v-2c-0.34-0.28-0.55-0.7-0.55-1.17c0-0.85,0.69-1.54,1.55-1.54c0.85,0,1.54,0.69,1.54,1.54   C22.91,30.865,22.7,31.285,22.37,31.565z M25.43028,24.974h-8.1289v-4.6817c0-1.75,1.4238-3.1738,3.1738-3.1738h1.7812   c1.75,0,3.1739,1.4238,3.1739,3.1738V24.974z"/></g></svg>