<svg xmlns:dc="http://purl.org/dc/elements/1.1/" xmlns:cc="http://creativecommons.org/ns#" xmlns:rdf="http://www.w3.org/1999/02/22-rdf-syntax-ns#" xmlns:svg="http://www.w3.org/2000/svg" xmlns="http://www.w3.org/2000/svg" xmlns:sodipodi="http://sodipodi.sourceforge.net/DTD/sodipodi-0.dtd" xmlns:inkscape="http://www.inkscape.org/namespaces/inkscape" version="1.1" x="0px" y="0px" viewBox="0 0 100 125"><g transform="translate(0,-952.36218)"><g transform="translate(16.001969,960.34495)"><path fill="#00baff" d="m 33.803149,0.03543307 c -0.212599,0 -0.425197,0.07086614 -0.602363,0.14173228 L 1.2047244,14.137795 C 0.49606298,14.42126 0,15.200787 0,15.980315 0,37.523622 1.3110236,49.925196 6.2362203,59.385826 11.19685,68.811023 19.594488,74.834645 32.917322,83.692913 c 0.637795,0.425197 1.523622,0.425197 2.161417,0 13.358268,-8.858268 21.720472,-14.88189 26.681102,-24.307087 4.925196,-9.46063 6.23622,-21.862204 6.23622,-43.405511 0,-0.779528 -0.46063,-1.559055 -1.169291,-1.84252 L 34.795275,0.17716535 C 34.51181,0.03543307 34.157479,0 33.803149,0.03543307 z M 34.015747,4.1811023 63.956691,17.255905 C 63.921258,37.73622 62.539368,49.287401 58.216534,57.543307 53.964565,65.692913 46.523621,71.220472 34.015747,79.582676 21.47244,71.220472 14.066929,65.692913 9.7795273,57.543307 5.4921258,49.287401 4.1102361,37.73622 4.03937,17.255905 L 34.015747,4.1811023 z m 0,16.8661417 c -2.763779,0 -5.031496,2.232283 -5.031496,4.996063 l 1.027559,18 c 0,2.19685 1.771654,4.003937 4.003937,4.003937 2.19685,0 3.968504,-1.807087 3.968504,-4.003937 l 1.027559,-18 c 0,-2.76378 -2.267717,-4.996063 -4.996063,-4.996063 z m 0,29.976378 c -2.763779,0 -5.031496,2.232283 -5.031496,4.996063 0,2.763779 2.267717,4.996063 5.031496,4.996063 2.728346,0 4.996063,-2.232284 4.996063,-4.996063 0,-2.76378 -2.267717,-4.996063 -4.996063,-4.996063 z" style="" fill-opacity="1" fill-rule="nonzero" stroke="none"/></g></g></svg>