<svg xmlns="http://www.w3.org/2000/svg" xmlns:xlink="http://www.w3.org/1999/xlink" version="1.1" x="0px" y="0px" viewBox="0 0 66 82.5" style="enable-background:new 0 0 66 66;" xml:space="preserve"><g><path fill="#00baff" d="M56.9,21.9C61.1,1.3,31-7.7,23.3,12c-0.1,0-0.2,0-0.3,0c-5.7,0-10.6,4-11.8,9.5C4.8,22.3,0.1,28.3,1.1,35   c0.9,5.8,6.1,9.9,12,9.9h9.6v13.6H9.4l1-1c0.4-0.4,0.4-1,0-1.4c-0.4-0.4-1-0.4-1.4,0l-2.7,2.7C6.1,59,6,59.2,6,59.5   s0.1,0.5,0.3,0.7L9,62.9c0.4,0.4,1,0.4,1.4,0c0.4-0.4,0.4-1,0-1.4l-1-1h14.3c0.6,0,1-0.4,1-1V44.9H32v16.6l-1-1   c-0.4-0.4-1-0.4-1.4,0c-0.4,0.4-0.4,1,0,1.4l2.7,2.7c0.2,0.2,0.4,0.3,0.7,0.3c0,0,0,0,0,0c0.3,0,0.5-0.1,0.7-0.3l2.7-2.7   c0.4-0.4,0.4-1,0-1.4v0c-0.4-0.4-1-0.4-1.4,0l-1,1V44.9h7.3v14.6c0,0.6,0.4,1,1,1h14.3l-1,1c-0.4,0.4-0.4,1,0,1.4   c0.4,0.4,1,0.4,1.4,0l2.7-2.7c0.4-0.4,0.4-1,0-1.4L57,56.1c-0.4-0.4-1-0.4-1.4,0c-0.4,0.4-0.4,1,0,1.4l1,1H43.3V44.9h9.5   c6.3,0,11.8-4.8,12.1-11.1C65.3,28.4,61.9,23.6,56.9,21.9z M53.2,42.9H12.8c-5.4,0-9.8-4.4-9.8-9.8c0-5.1,4-9.4,9.1-9.7   c0.5,0,0.9-0.4,0.9-0.8c0.8-5,5-8.6,10-8.6c0.3,0,0.6,0,0.9,0c0.4,0,0.9-0.2,1-0.7c6.5-18.5,34.7-10.1,29.8,9.1   c-0.1,0.3,0,0.5,0.1,0.8c0.1,0.2,0.4,0.4,0.6,0.5c4.4,1.1,7.5,5,7.5,9.5C63,38.5,58.6,42.9,53.2,42.9z"/></g></svg>