<svg xmlns="http://www.w3.org/2000/svg" viewBox="0 0 1000 152.18"><title>Asset 1</title><g id="Layer_2" data-name="Layer 2"><g id="Layer_1-2" data-name="Layer 1"><path d="M0,0C10.69,2.78,21.31,5.63,32,8.45L63.81,17C74.43,19.86,85,22.77,95.58,25.66l31.74,8.68L159,43.08l31.62,8.8,31.57,8.84,31.54,8.88,31.5,8.92,31.45,9,31.43,9,31.39,9,62.69,18.18L504.74,142h-9.47l62.56-18.32,62.69-18.17,31.39-9,31.43-9,31.45-9,31.5-8.92,31.54-8.88,31.57-8.84L841,43.07l31.67-8.75,31.74-8.67c10.59-2.89,21.14-5.8,31.77-8.64L968,8.44c10.66-2.81,21.27-5.67,32-8.44-10.14,3.34-20.36,6.6-30.53,9.9l-30.65,9.78c-10.2,3.27-20.48,6.47-30.73,9.7L877.33,39l-30.83,9.6-30.88,9.54-30.93,9.5-31,9.46-31,9.43-31,9.37-31.07,9.35-31.11,9.31-62.31,18.53-62.44,18.4a17.69,17.69,0,0,1-9.47,0l-62.44-18.41L370.52,114.6l-31.11-9.31-31.07-9.35-31-9.38-31-9.42-31-9.46-30.93-9.5-30.88-9.54L122.69,39,91.92,29.37c-10.25-3.23-20.52-6.43-30.73-9.7L30.54,9.89C20.36,6.59,10.14,3.33,0,0Z"/></g></g></svg>