<svg xmlns="http://www.w3.org/2000/svg" xmlns:xlink="http://www.w3.org/1999/xlink" version="1.1" x="0px" y="0px" viewBox="0 0 32 40" enable-background="new 0 0 32 32" xml:space="preserve"><g><g><polygon fill="#00baff" points="19.063,17.644 22.354,14.354 21.646,13.646 18.937,16.356 15.937,14.356 12,18.293 10.354,16.646 9.646,17.354     12,19.707 12.937,20.644 15.937,18.644 20,22.707 22.354,20.354 21.646,19.646 20,21.293 16.063,17.356 13.063,19.356 12.707,19     16.063,15.644   "/><rect fill="#00baff" x="7" y="7.5" width="2" height="1"/><rect fill="#00baff" x="10" y="7.5" width="2" height="1"/><rect fill="#00baff" x="13" y="7.5" width="2" height="1"/><path fill="#00baff" d="M4.5,27.5h23v-23h-23V27.5z M5.5,5.5h21v21h-21V5.5z"/></g></g></svg>