<svg xmlns="http://www.w3.org/2000/svg" data-name="Layer 1" viewBox="0 0 128 160" x="0px" y="0px"><title>82 Miscellaneous 13</title><path fill="#00baff" d="M111,62H95.27a33.62,33.62,0,0,1-1.11,4H111a2,2,0,0,0,0-4Z"/><path fill="#00baff" d="M111,74a2,2,0,0,0,0-4H92.5a34,34,0,0,1-2.32,4Z"/><path fill="#00baff" d="M82.63,82H111a2,2,0,0,0,0-4H87A34.28,34.28,0,0,1,82.63,82Z"/><path fill="#00baff" d="M4,16a2,2,0,0,1,2-2H56a2,2,0,0,0,0-4H6a6,6,0,0,0-6,6V82l4-2.87Z"/><path fill="#00baff" d="M122,10H68.28A6.27,6.27,0,0,0,62,16.25V25A30,30,0,0,0,37.4,72.17l-2.7,2.14-3.59-4.64a4.31,4.31,0,0,0-6-.81L.82,86.67A2,2,0,0,0,0,88.28v26.48a2,2,0,0,0,3.2,1.6L40.31,88.64a4.31,4.31,0,0,0,.8-6l-4-5.12,2.75-2.19a30,30,0,1,0,26.1-50v-9A2.27,2.27,0,0,1,68.28,14h53.44A2.27,2.27,0,0,1,124,16.25v71.5A2.27,2.27,0,0,1,121.72,90H44.49a8.29,8.29,0,0,1-1.74,1.81L39.84,94H55v7H47.12A2.09,2.09,0,0,0,45,102.66,2,2,0,0,0,47,105H80.88A2.09,2.09,0,0,0,83,103.34,2,2,0,0,0,81,101H73V94h49a6,6,0,0,0,6-6V16A6,6,0,0,0,122,10ZM61.41,39A16.13,16.13,0,0,0,49,51.42,2,2,0,0,1,47,53a2,2,0,0,1-.42,0A2,2,0,0,1,45,50.58,20.15,20.15,0,0,1,60.59,35,2,2,0,1,1,61.41,39Z"/><path fill="#00baff" d="M17,22a2,2,0,0,0-2,2V40a2,2,0,0,0,4,0V26H35a2,2,0,0,0,0-4Z"/><path fill="#00baff" d="M111,54H96c0,.33,0,.66,0,1,0,1-.05,2-.14,3H111a2,2,0,0,0,0-4Z"/><path fill="#00baff" d="M111,46H94.78a33.66,33.66,0,0,1,.85,4H111a2,2,0,0,0,0-4Z"/><path fill="#00baff" d="M111,42a2,2,0,0,0,0-4H91.43a33.87,33.87,0,0,1,2,4Z"/><path fill="#00baff" d="M88.71,34H111a2,2,0,0,0,0-4H85A34.33,34.33,0,0,1,88.71,34Z"/><path fill="#00baff" d="M113,24a2,2,0,0,0-2-2H79a2,2,0,0,0-1.92,2.54q1.36.68,2.64,1.46H111A2,2,0,0,0,113,24Z"/></svg>