<?xml version="1.0" encoding="UTF-8" standalone="no"?>
<!-- Created with Inkscape (http://www.inkscape.org/) -->

<svg
   xmlns:dc="http://purl.org/dc/elements/1.1/"
   xmlns:cc="http://creativecommons.org/ns#"
   xmlns:rdf="http://www.w3.org/1999/02/22-rdf-syntax-ns#"
   xmlns:svg="http://www.w3.org/2000/svg"
   xmlns="http://www.w3.org/2000/svg"
   xmlns:sodipodi="http://sodipodi.sourceforge.net/DTD/sodipodi-0.dtd"
   xmlns:inkscape="http://www.inkscape.org/namespaces/inkscape"
   width="450mm"
   height="317mm"
   viewBox="0 0 450 317"
   version="1.1"
   id="svg152"
   inkscape:version="0.92.4 (5da689c313, 2019-01-14)"
   sodipodi:docname="signals_logo.svg">
  <defs
     id="defs146" />
  <sodipodi:namedview
     id="base"
     pagecolor="#ffffff"
     bordercolor="#666666"
     borderopacity="1.0"
     inkscape:pageopacity="0.0"
     inkscape:pageshadow="2"
     inkscape:zoom="0.24748737"
     inkscape:cx="378.74758"
     inkscape:cy="650.26551"
     inkscape:document-units="mm"
     inkscape:current-layer="g130"
     showgrid="false"
     inkscape:window-width="1858"
     inkscape:window-height="1057"
     inkscape:window-x="-8"
     inkscape:window-y="-8"
     inkscape:window-maximized="1"
     showguides="true"
     inkscape:guide-bbox="true">
    <sodipodi:guide
       position="48.108516,344.24315"
       orientation="1,0"
       id="guide50"
       inkscape:locked="false" />
    <sodipodi:guide
       position="412.66416,235.19719"
       orientation="1,0"
       id="guide52"
       inkscape:locked="false" />
  </sodipodi:namedview>
  <metadata
     id="metadata149">
    <rdf:RDF>
      <cc:Work
         rdf:about="">
        <dc:format>image/svg+xml</dc:format>
        <dc:type
           rdf:resource="http://purl.org/dc/dcmitype/StillImage" />
        <dc:title />
      </cc:Work>
    </rdf:RDF>
  </metadata>
  <g
     inkscape:groupmode="layer"
     id="layer3"
     inkscape:label="Layer 2"
     sodipodi:insensitive="true"
     style="display:none">
    <rect
       style="fill:#000000;stroke-width:0.26458332"
       id="rect39"
       width="450.08188"
       height="319.65436"
       x="0"
       y="0.55287957" />
  </g>
  <g
     inkscape:label="Layer 1"
     inkscape:groupmode="layer"
     id="layer1"
     transform="translate(0,20)">
    <g
       id="g130"
       transform="matrix(5.4497789,0,0,5.4497789,-657.08643,-819.0475)">
      <path
         style="fill:#ffffff;fill-opacity:1;stroke-width:0.11954801"
         d="m 174.42294,167.88236 a 11.954801,11.954801 0 0 0 -3.15106,-8.06965 c -2.12376,0.0807 -5.08293,0.23631 -8.13743,0.56596 -2.75201,0.297 -5.49888,0.73619 -7.45601,1.33145 -0.97856,0.29762 -1.7572,0.64443 -2.19671,0.95058 -0.4395,0.30616 -0.45176,0.44004 -0.45176,0.48565 0,0.20823 0.0717,0.39798 0.50698,0.74542 0.43526,0.34744 1.19766,0.73456 2.16659,1.07984 1.01935,0.36326 2.26524,0.68791 3.6135,0.99137 a 3.6942167,3.6942167 0 0 1 3.15106,-1.77506 3.6942167,3.6942167 0 0 1 3.64737,3.12409 c 1.71591,0.33656 3.36003,0.68832 4.75358,1.11059 1.09448,0.33165 2.04183,0.69439 2.81663,1.20659 0.18408,0.12168 0.36366,0.26105 0.53146,0.41537 a 11.954801,11.954801 0 0 0 0.2058,-2.1622 z m -1.61945,4.11169 c -1e-5,-0.007 0.0148,-0.10528 -0.42103,-0.39341 -0.43585,-0.28813 -1.21827,-0.61947 -2.19922,-0.91671 -1.23546,-0.37436 -2.79812,-0.71056 -4.46808,-1.04031 a 3.6942167,3.6942167 0 0 1 -3.24706,1.93318 3.6942167,3.6942167 0 0 1 -3.66934,-3.30416 c -1.39786,-0.3136 -2.72616,-0.65983 -3.88894,-1.0742 -1.10648,-0.3943 -2.07261,-0.84051 -2.84801,-1.45945 -0.42276,-0.33746 -0.79448,-0.76355 -1.04973,-1.25177 a 11.954801,11.954801 0 0 0 -0.49882,3.39514 11.954801,11.954801 0 0 0 2.93459,7.82182 c 1.36223,0.0172 5.51931,0.029 9.82464,-0.41349 2.59859,-0.26706 5.18673,-0.71012 7.00487,-1.36158 0.90907,-0.32572 1.61606,-0.70911 2.02228,-1.06227 0.40622,-0.35317 0.50385,-0.58146 0.50385,-0.87279 z m -1.71922,4.15562 c -0.004,0.001 -0.007,0.003 -0.0107,0.004 -2.15406,0.77181 -4.8625,1.20981 -7.56017,1.48705 -2.65625,0.27299 -5.29431,0.37807 -7.29475,0.41475 a 11.954801,11.954801 0 0 0 6.24941,1.78132 11.954801,11.954801 0 0 0 8.61618,-3.68753 z m -2.58009,-18.57195 a 11.954801,11.954801 0 0 0 -6.03608,-1.6502 11.954801,11.954801 0 0 0 -8.95374,4.04958 c 0.45715,-0.1943 0.94863,-0.3678 1.4764,-0.52832 2.22787,-0.6776 5.0616,-1.11472 7.88957,-1.41992 1.96152,-0.2117 3.90392,-0.35255 5.62385,-0.45114 z"
         id="path7665-5-8-23-0"
         inkscape:connector-curvature="0" />
      <path
         style="opacity:1;fill:#ff0000;fill-opacity:1;stroke:none;stroke-width:0.68683749;stroke-miterlimit:4;stroke-dasharray:none;stroke-opacity:1"
         d="m 162.4681,165.61518 a 2.267067,2.267067 0 0 0 -2.26719,2.26719 2.267067,2.267067 0 0 0 2.26719,2.26718 2.267067,2.267067 0 0 0 2.26718,-2.26718 2.267067,2.267067 0 0 0 -2.26718,-2.26719 z"
         id="path8478-2-6-1-6-0"
         inkscape:connector-curvature="0" />
      <g
         aria-label="SIGNALS"
         style="font-style:normal;font-weight:normal;font-size:15.07437801px;line-height:1.25;font-family:sans-serif;letter-spacing:0px;word-spacing:0px;fill:#ffffff;fill-opacity:1;stroke:none;stroke-width:0.3768594"
         id="text8547-9-0-0-5">
        <path
           d="m 137.96767,193.88995 q 0,0.64036 -0.30178,1.26601 -0.29442,0.62564 -0.83174,1.05991 -0.58884,0.47108 -1.37642,0.73606 -0.78022,0.26498 -1.8843,0.26498 -1.18505,0 -2.13455,-0.22082 -0.94215,-0.22081 -1.9211,-0.65509 v -1.82541 h 0.10304 q 0.83174,0.69189 1.9211,1.06728 1.08936,0.37539 2.04623,0.37539 1.35434,0 2.10512,-0.50788 0.75813,-0.50788 0.75813,-1.35434 0,-0.72869 -0.36067,-1.07464 -0.3533,-0.34594 -1.08199,-0.53732 -0.55204,-0.14721 -1.19977,-0.24289 -0.64037,-0.0957 -1.3617,-0.2429 -1.45739,-0.30914 -2.164,-1.05256 -0.69925,-0.75077 -0.69925,-1.95054 0,-1.37642 1.16297,-2.25233 1.16296,-0.88326 2.95157,-0.88326 1.1556,0 2.11983,0.22082 0.96423,0.22081 1.70765,0.54468 v 1.72236 h -0.10305 q -0.62564,-0.52996 -1.64876,-0.8759 -1.01575,-0.35331 -2.08303,-0.35331 -1.17033,0 -1.8843,0.4858 -0.70661,0.48579 -0.70661,1.25129 0,0.68453 0.35331,1.07464 0.3533,0.39011 1.24393,0.5962 0.47107,0.10305 1.33961,0.25026 0.86855,0.14721 1.47211,0.30178 1.22185,0.32386 1.84014,0.97895 0.61828,0.65509 0.61828,1.83278 z"
           style="font-style:normal;font-variant:normal;font-weight:300;font-stretch:normal;font-family:lato;-inkscape-font-specification:'lato Light';fill:#ffffff;fill-opacity:1;stroke-width:0.3768594"
           id="path54" />
        <path
           d="m 144.1726,197.01817 h -4.32799 v -1.1188 h 1.4353 v -8.72223 h -1.4353 v -1.11881 h 4.32799 v 1.11881 h -1.4353 v 8.72223 h 1.4353 z"
           style="font-style:normal;font-variant:normal;font-weight:300;font-stretch:normal;font-family:lato;-inkscape-font-specification:'lato Light';fill:#ffffff;fill-opacity:1;stroke-width:0.3768594"
           id="path56" />
        <path
           d="m 155.80961,196.20851 q -0.89799,0.41219 -1.96526,0.72134 -1.05992,0.30178 -2.05359,0.30178 -1.28074,0 -2.34801,-0.35331 -1.06728,-0.3533 -1.81806,-1.05991 -0.75813,-0.71398 -1.17032,-1.78125 -0.41219,-1.07464 -0.41219,-2.50995 0,-2.62771 1.53099,-4.14398 1.53835,-1.52363 4.21759,-1.52363 0.93479,0 1.90638,0.22818 0.97895,0.22081 2.10511,0.75813 v 1.72973 h -0.13249 q -0.22818,-0.17665 -0.66245,-0.46372 -0.43427,-0.28706 -0.85382,-0.47843 -0.50788,-0.22818 -1.1556,-0.37539 -0.64037,-0.15457 -1.45739,-0.15457 -1.84014,0 -2.91477,1.18505 -1.06728,1.17768 -1.06728,3.19447 0,2.12719 1.1188,3.31224 1.1188,1.17769 3.04726,1.17769 0.70661,0 1.40586,-0.13985 0.70662,-0.13985 1.23657,-0.36067 v -2.6866 h -2.93685 v -1.28073 h 4.37952 z"
           style="font-style:normal;font-variant:normal;font-weight:300;font-stretch:normal;font-family:lato;-inkscape-font-specification:'lato Light';fill:#ffffff;fill-opacity:1;stroke-width:0.3768594"
           id="path58" />
        <path
           d="m 166.71793,197.01817 h -1.80334 l -5.19653,-9.80423 v 9.80423 h -1.3617 v -10.95984 h 2.25968 l 4.74019,8.95042 v -8.95042 h 1.3617 z"
           style="font-style:normal;font-variant:normal;font-weight:300;font-stretch:normal;font-family:lato;-inkscape-font-specification:'lato Light';fill:#ffffff;fill-opacity:1;stroke-width:0.3768594"
           id="path60" />
        <path
           d="m 178.27397,197.01817 h -1.55308 l -1.07463,-3.05462 h -4.74019 l -1.07464,3.05462 h -1.47946 l 3.98941,-10.95984 h 1.94318 z m -3.07671,-4.30591 -1.9211,-5.38055 -1.92846,5.38055 z"
           style="font-style:normal;font-variant:normal;font-weight:300;font-stretch:normal;font-family:lato;-inkscape-font-specification:'lato Light';fill:#ffffff;fill-opacity:1;stroke-width:0.3768594"
           id="path62" />
        <path
           d="m 186.87107,197.01817 h -6.93362 v -10.95984 h 1.45738 v 9.66439 h 5.47624 z"
           style="font-style:normal;font-variant:normal;font-weight:300;font-stretch:normal;font-family:lato;-inkscape-font-specification:'lato Light';fill:#ffffff;fill-opacity:1;stroke-width:0.3768594"
           id="path64" />
        <path
           d="m 196.29256,193.88995 q 0,0.64036 -0.30178,1.26601 -0.29443,0.62564 -0.83175,1.05991 -0.58884,0.47108 -1.37642,0.73606 -0.78021,0.26498 -1.88429,0.26498 -1.18505,0 -2.13456,-0.22082 -0.94215,-0.22081 -1.9211,-0.65509 v -1.82541 h 0.10305 q 0.83174,0.69189 1.9211,1.06728 1.08936,0.37539 2.04623,0.37539 1.35434,0 2.10511,-0.50788 0.75814,-0.50788 0.75814,-1.35434 0,-0.72869 -0.36067,-1.07464 -0.35331,-0.34594 -1.082,-0.53732 -0.55204,-0.14721 -1.19977,-0.24289 -0.64036,-0.0957 -1.36169,-0.2429 -1.45739,-0.30914 -2.164,-1.05256 -0.69925,-0.75077 -0.69925,-1.95054 0,-1.37642 1.16296,-2.25233 1.16297,-0.88326 2.95158,-0.88326 1.1556,0 2.11983,0.22082 0.96423,0.22081 1.70765,0.54468 v 1.72236 h -0.10305 q -0.62565,-0.52996 -1.64876,-0.8759 -1.01576,-0.35331 -2.08303,-0.35331 -1.17033,0 -1.8843,0.4858 -0.70661,0.48579 -0.70661,1.25129 0,0.68453 0.3533,1.07464 0.35331,0.39011 1.24393,0.5962 0.47108,0.10305 1.33962,0.25026 0.86854,0.14721 1.47211,0.30178 1.22185,0.32386 1.84013,0.97895 0.61829,0.65509 0.61829,1.83278 z"
           style="font-style:normal;font-variant:normal;font-weight:300;font-stretch:normal;font-family:lato;-inkscape-font-specification:'lato Light';fill:#ffffff;fill-opacity:1;stroke-width:0.3768594"
           id="path66" />
      </g>
    </g>
  </g>
</svg>
